<svg version="1.1" class="highcharts-root" style="font-family:&quot;Lucida Grande&quot;, &quot;Lucida Sans Unicode&quot;, Arial, Helvetica, sans-serif;font-size:12px;" xmlns="http://www.w3.org/2000/svg" width="647" height="400" viewBox="0 0 647 400"><desc>Created with Highstock 6.0.3</desc><defs><clipPath id="highcharts-fei0ufw-1"><rect x="0" y="0" width="647" height="273" fill="none"></rect></clipPath><clipPath id="highcharts-fei0ufw-2"><rect x="0" y="0" width="647" height="265" fill="none"></rect></clipPath><clipPath id="highcharts-fei0ufw-3"><rect x="0" y="0" width="647" height="96" fill="none"></rect></clipPath><clipPath id="highcharts-fei0ufw-4"><rect x="0" y="0" width="647" height="0" fill="none"></rect></clipPath></defs><rect fill="#F7FaFb" class="highcharts-background" x="0" y="0" width="647" height="400" rx="0" ry="0"></rect><rect fill="none" class="highcharts-plot-background" x="0" y="45" width="647" height="273"></rect><g class="highcharts-label" transform="translate(7,40)"></g><g class="highcharts-grid highcharts-xaxis-grid "><path fill="none" stroke="#eeeeee" stroke-width="1" stroke-dasharray="4,3" class="highcharts-grid-line" d="M 231.5 53 L 231.5 318 M 231.5 222 L 231.5 318 M 231.5 45 L 231.5 318" opacity="1"></path><path fill="none" stroke="#eeeeee" stroke-width="1" stroke-dasharray="4,3" class="highcharts-grid-line" d="M 553.5 53 L 553.5 318 M 553.5 222 L 553.5 318 M 553.5 45 L 553.5 318" opacity="1"></path><path fill="none" stroke="#eeeeee" stroke-width="1" stroke-dasharray="4,3" opacity="1" class="highcharts-grid-line" d="M 16.5 53 L 16.5 318 M 16.5 222 L 16.5 318 M 16.5 45 L 16.5 318"></path><path fill="none" stroke="#eeeeee" stroke-width="1" stroke-dasharray="4,3" opacity="1" class="highcharts-grid-line" d="M 123.5 53 L 123.5 318 M 123.5 222 L 123.5 318 M 123.5 45 L 123.5 318"></path><path fill="none" stroke="#eeeeee" stroke-width="1" stroke-dasharray="4,3" opacity="1" class="highcharts-grid-line" d="M 338.5 53 L 338.5 318 M 338.5 222 L 338.5 318 M 338.5 45 L 338.5 318"></path><path fill="none" stroke="#eeeeee" stroke-width="1" stroke-dasharray="4,3" opacity="1" class="highcharts-grid-line" d="M 446.5 53 L 446.5 318 M 446.5 222 L 446.5 318 M 446.5 45 L 446.5 318"></path></g><g class="highcharts-grid highcharts-xaxis-grid highcharts-navigator-xaxis"><path fill="none" stroke="#e6e6e6" stroke-width="1" stroke-dasharray="4,3" class="highcharts-grid-line" d="M 346.5 367.5 L 346.5 367.5" opacity="1"></path><path fill="none" stroke="#e6e6e6" stroke-width="1" stroke-dasharray="4,3" opacity="1" class="highcharts-grid-line" d="M 84.5 367.5 L 84.5 367.5"></path><path fill="none" stroke="#e6e6e6" stroke-width="1" stroke-dasharray="4,3" opacity="1" class="highcharts-grid-line" d="M 608.5 367.5 L 608.5 367.5"></path></g><g class="highcharts-grid highcharts-yaxis-grid "><path fill="none" stroke="rgba(200, 200, 200, 0.1)" stroke-width="1" stroke-dasharray="4,3" class="highcharts-grid-line" d="M 0 264.5 L 647 264.5" opacity="1"></path><path fill="none" stroke="rgba(200, 200, 200, 0.1)" stroke-width="1" stroke-dasharray="4,3" class="highcharts-grid-line" d="M 0 191.5 L 647 191.5" opacity="1"></path><path fill="none" stroke="rgba(200, 200, 200, 0.1)" stroke-width="1" stroke-dasharray="4,3" class="highcharts-grid-line" d="M 0 119.5 L 647 119.5" opacity="1"></path></g><g class="highcharts-grid highcharts-yaxis-grid "></g><g class="highcharts-grid highcharts-yaxis-grid "><path fill="none" stroke="#2e7ad0" stroke-width="1" stroke-dasharray="4,3" class="highcharts-grid-line" d="M 0 239.5 L 647 239.5" opacity="1"></path></g><g class="highcharts-grid highcharts-yaxis-grid highcharts-navigator-yaxis"></g><rect fill="none" class="highcharts-plot-border" x="10" y="45" width="647" height="273"></rect><g class="highcharts-axis highcharts-xaxis "><path fill="none" class="highcharts-tick" stroke="#BDC3C7" stroke-width="1" d="M 231.5 318 L 231.5 328" opacity="1"></path><path fill="none" class="highcharts-tick" stroke="#BDC3C7" stroke-width="1" d="M 553.5 318 L 553.5 328" opacity="1"></path><path fill="none" class="highcharts-tick" stroke="#BDC3C7" stroke-width="1" d="M 16.5 318 L 16.5 328" opacity="1"></path><path fill="none" class="highcharts-tick" stroke="#BDC3C7" stroke-width="1" d="M 123.5 318 L 123.5 328" opacity="1"></path><path fill="none" class="highcharts-tick" stroke="#BDC3C7" stroke-width="1" d="M 338.5 318 L 338.5 328" opacity="1"></path><path fill="none" class="highcharts-tick" stroke="#BDC3C7" stroke-width="1" d="M 446.5 318 L 446.5 328" opacity="1"></path><path fill="none" class="highcharts-axis-line" stroke="#BDC3C7" stroke-width="1" d="M 0 318.5 L 647 318.5"></path></g><g class="highcharts-axis highcharts-xaxis highcharts-navigator-xaxis"><path fill="none" class="highcharts-axis-line" d="M 0 367 L 647 367"></path></g><g class="highcharts-axis highcharts-yaxis "><path fill="none" class="highcharts-axis-line" d="M 647 53 L 647 318"></path></g><g class="highcharts-axis highcharts-yaxis "><path fill="none" class="highcharts-axis-line" d="M 0 45 L 0 318"></path></g><g class="highcharts-axis highcharts-yaxis "><path fill="none" class="highcharts-axis-line" d="M 647 45 L 647 318"></path></g><g class="highcharts-axis highcharts-yaxis highcharts-navigator-yaxis"><path fill="none" class="highcharts-axis-line" d="M 0 367 L 0 367"></path></g><g class="highcharts-series-group"><g class="highcharts-series highcharts-series-1 highcharts-column-series  highcharts-tracker" transform="translate(0,222) scale(1 1)" clip-path="url(#highcharts-fei0ufw-3)"><rect x="0" y="97" width="2" height="0" fill="rgba(132, 184, 235, 0.8)" class="highcharts-point"></rect><rect x="3" y="97" width="2" height="0" fill="rgba(132, 184, 235, 0.8)" class="highcharts-point"></rect><rect x="5" y="97" width="2" height="0" fill="rgba(132, 184, 235, 0.8)" class="highcharts-point"></rect><rect x="7" y="97" width="2" height="0" fill="rgba(132, 184, 235, 0.8)" class="highcharts-point"></rect><rect x="9" y="97" width="2" height="0" fill="rgba(132, 184, 235, 0.8)" class="highcharts-point"></rect><rect x="12" y="97" width="2" height="0" fill="rgba(132, 184, 235, 0.8)" class="highcharts-point"></rect><rect x="14" y="97" width="2" height="0" fill="rgba(132, 184, 235, 0.8)" class="highcharts-point"></rect><rect x="16" y="97" width="2" height="0" fill="rgba(132, 184, 235, 0.8)" class="highcharts-point"></rect><rect x="18" y="97" width="2" height="0" fill="rgba(132, 184, 235, 0.8)" class="highcharts-point"></rect><rect x="21" y="97" width="2" height="0" fill="rgba(132, 184, 235, 0.8)" class="highcharts-point"></rect><rect x="23" y="97" width="2" height="0" fill="rgba(132, 184, 235, 0.8)" class="highcharts-point"></rect><rect x="25" y="97" width="2" height="0" fill="rgba(132, 184, 235, 0.8)" class="highcharts-point"></rect><rect x="27" y="97" width="2" height="0" fill="rgba(132, 184, 235, 0.8)" class="highcharts-point"></rect><rect x="30" y="97" width="2" height="0" fill="rgba(132, 184, 235, 0.8)" class="highcharts-point"></rect><rect x="32" y="97" width="2" height="0" fill="rgba(132, 184, 235, 0.8)" class="highcharts-point"></rect><rect x="34" y="97" width="2" height="0" fill="rgba(132, 184, 235, 0.8)" class="highcharts-point"></rect><rect x="36" y="97" width="2" height="0" fill="rgba(132, 184, 235, 0.8)" class="highcharts-point"></rect><rect x="38" y="97" width="2" height="0" fill="rgba(132, 184, 235, 0.8)" class="highcharts-point"></rect><rect x="41" y="97" width="2" height="0" fill="rgba(132, 184, 235, 0.8)" class="highcharts-point"></rect><rect x="43" y="97" width="2" height="0" fill="rgba(132, 184, 235, 0.8)" class="highcharts-point"></rect><rect x="45" y="96" width="2" height="1" fill="rgba(132, 184, 235, 0.8)" class="highcharts-point"></rect><rect x="47" y="97" width="2" height="0" fill="rgba(132, 184, 235, 0.8)" class="highcharts-point"></rect><rect x="50" y="97" width="2" height="0" fill="rgba(132, 184, 235, 0.8)" class="highcharts-point"></rect><rect x="52" y="97" width="2" height="0" fill="rgba(132, 184, 235, 0.8)" class="highcharts-point"></rect><rect x="54" y="97" width="2" height="0" fill="rgba(132, 184, 235, 0.8)" class="highcharts-point"></rect><rect x="56" y="97" width="2" height="0" fill="rgba(132, 184, 235, 0.8)" class="highcharts-point"></rect><rect x="59" y="97" width="2" height="0" fill="rgba(132, 184, 235, 0.8)" class="highcharts-point"></rect><rect x="61" y="95" width="2" height="2" fill="rgba(132, 184, 235, 0.8)" class="highcharts-point"></rect><rect x="63" y="96" width="2" height="1" fill="rgba(132, 184, 235, 0.8)" class="highcharts-point"></rect><rect x="65" y="96" width="2" height="1" fill="rgba(132, 184, 235, 0.8)" class="highcharts-point"></rect><rect x="68" y="97" width="2" height="0" fill="rgba(132, 184, 235, 0.8)" class="highcharts-point"></rect><rect x="70" y="97" width="2" height="0" fill="rgba(132, 184, 235, 0.8)" class="highcharts-point"></rect><rect x="72" y="97" width="2" height="0" fill="rgba(132, 184, 235, 0.8)" class="highcharts-point"></rect><rect x="74" y="97" width="2" height="0" fill="rgba(132, 184, 235, 0.8)" class="highcharts-point"></rect><rect x="77" y="97" width="2" height="0" fill="rgba(132, 184, 235, 0.8)" class="highcharts-point"></rect><rect x="79" y="95" width="2" height="2" fill="rgba(132, 184, 235, 0.8)" class="highcharts-point"></rect><rect x="81" y="97" width="2" height="0" fill="rgba(132, 184, 235, 0.8)" class="highcharts-point"></rect><rect x="83" y="97" width="2" height="0" fill="rgba(132, 184, 235, 0.8)" class="highcharts-point"></rect><rect x="85" y="96" width="2" height="1" fill="rgba(132, 184, 235, 0.8)" class="highcharts-point"></rect><rect x="88" y="97" width="2" height="0" fill="rgba(132, 184, 235, 0.8)" class="highcharts-point"></rect><rect x="90" y="97" width="2" height="0" fill="rgba(132, 184, 235, 0.8)" class="highcharts-point"></rect><rect x="92" y="97" width="2" height="0" fill="rgba(132, 184, 235, 0.8)" class="highcharts-point"></rect><rect x="94" y="97" width="2" height="0" fill="rgba(132, 184, 235, 0.8)" class="highcharts-point"></rect><rect x="97" y="97" width="2" height="0" fill="rgba(132, 184, 235, 0.8)" class="highcharts-point"></rect><rect x="99" y="97" width="2" height="0" fill="rgba(132, 184, 235, 0.8)" class="highcharts-point"></rect><rect x="101" y="96" width="2" height="1" fill="rgba(132, 184, 235, 0.8)" class="highcharts-point"></rect><rect x="103" y="97" width="2" height="0" fill="rgba(132, 184, 235, 0.8)" class="highcharts-point"></rect><rect x="106" y="97" width="2" height="0" fill="rgba(132, 184, 235, 0.8)" class="highcharts-point"></rect><rect x="108" y="96" width="2" height="1" fill="rgba(132, 184, 235, 0.8)" class="highcharts-point"></rect><rect x="110" y="97" width="2" height="0" fill="rgba(132, 184, 235, 0.8)" class="highcharts-point"></rect><rect x="112" y="96" width="2" height="1" fill="rgba(132, 184, 235, 0.8)" class="highcharts-point"></rect><rect x="115" y="97" width="2" height="0" fill="rgba(132, 184, 235, 0.8)" class="highcharts-point"></rect><rect x="117" y="97" width="2" height="0" fill="rgba(132, 184, 235, 0.8)" class="highcharts-point"></rect><rect x="119" y="96" width="2" height="1" fill="rgba(132, 184, 235, 0.8)" class="highcharts-point"></rect><rect x="121" y="97" width="2" height="0" fill="rgba(132, 184, 235, 0.8)" class="highcharts-point"></rect><rect x="124" y="97" width="2" height="0" fill="rgba(132, 184, 235, 0.8)" class="highcharts-point"></rect><rect x="126" y="97" width="2" height="0" fill="rgba(132, 184, 235, 0.8)" class="highcharts-point"></rect><rect x="128" y="97" width="2" height="0" fill="rgba(132, 184, 235, 0.8)" class="highcharts-point"></rect><rect x="130" y="97" width="2" height="0" fill="rgba(132, 184, 235, 0.8)" class="highcharts-point"></rect><rect x="132" y="97" width="2" height="0" fill="rgba(132, 184, 235, 0.8)" class="highcharts-point"></rect><rect x="135" y="97" width="2" height="0" fill="rgba(132, 184, 235, 0.8)" class="highcharts-point"></rect><rect x="137" y="96" width="2" height="1" fill="rgba(132, 184, 235, 0.8)" class="highcharts-point"></rect><rect x="139" y="96" width="2" height="1" fill="rgba(132, 184, 235, 0.8)" class="highcharts-point"></rect><rect x="141" y="97" width="2" height="0" fill="rgba(132, 184, 235, 0.8)" class="highcharts-point"></rect><rect x="144" y="97" width="2" height="0" fill="rgba(132, 184, 235, 0.8)" class="highcharts-point"></rect><rect x="146" y="97" width="2" height="0" fill="rgba(132, 184, 235, 0.8)" class="highcharts-point"></rect><rect x="148" y="97" width="2" height="0" fill="rgba(132, 184, 235, 0.8)" class="highcharts-point"></rect><rect x="150" y="97" width="2" height="0" fill="rgba(132, 184, 235, 0.8)" class="highcharts-point"></rect><rect x="153" y="97" width="2" height="0" fill="rgba(132, 184, 235, 0.8)" class="highcharts-point"></rect><rect x="155" y="97" width="2" height="0" fill="rgba(132, 184, 235, 0.8)" class="highcharts-point"></rect><rect x="157" y="97" width="2" height="0" fill="rgba(132, 184, 235, 0.8)" class="highcharts-point"></rect><rect x="159" y="97" width="2" height="0" fill="rgba(132, 184, 235, 0.8)" class="highcharts-point"></rect><rect x="162" y="97" width="2" height="0" fill="rgba(132, 184, 235, 0.8)" class="highcharts-point"></rect><rect x="164" y="97" width="2" height="0" fill="rgba(132, 184, 235, 0.8)" class="highcharts-point"></rect><rect x="166" y="97" width="2" height="0" fill="rgba(132, 184, 235, 0.8)" class="highcharts-point"></rect><rect x="168" y="97" width="2" height="0" fill="rgba(132, 184, 235, 0.8)" class="highcharts-point"></rect><rect x="171" y="97" width="2" height="0" fill="rgba(132, 184, 235, 0.8)" class="highcharts-point"></rect><rect x="173" y="96" width="2" height="1" fill="rgba(132, 184, 235, 0.8)" class="highcharts-point"></rect><rect x="175" y="97" width="2" height="0" fill="rgba(132, 184, 235, 0.8)" class="highcharts-point"></rect><rect x="177" y="97" width="2" height="0" fill="rgba(132, 184, 235, 0.8)" class="highcharts-point"></rect><rect x="180" y="96" width="2" height="1" fill="rgba(132, 184, 235, 0.8)" class="highcharts-point"></rect><rect x="182" y="90" width="2" height="7" fill="rgba(132, 184, 235, 0.8)" class="highcharts-point"></rect><rect x="184" y="97" width="2" height="0" fill="rgba(132, 184, 235, 0.8)" class="highcharts-point"></rect><rect x="186" y="97" width="2" height="0" fill="rgba(132, 184, 235, 0.8)" class="highcharts-point"></rect><rect x="188" y="97" width="2" height="0" fill="rgba(132, 184, 235, 0.8)" class="highcharts-point"></rect><rect x="191" y="97" width="2" height="0" fill="rgba(132, 184, 235, 0.8)" class="highcharts-point"></rect><rect x="193" y="96" width="2" height="1" fill="rgba(132, 184, 235, 0.8)" class="highcharts-point"></rect><rect x="195" y="97" width="2" height="0" fill="rgba(132, 184, 235, 0.8)" class="highcharts-point"></rect><rect x="197" y="97" width="2" height="0" fill="rgba(132, 184, 235, 0.8)" class="highcharts-point"></rect><rect x="200" y="97" width="2" height="0" fill="rgba(132, 184, 235, 0.8)" class="highcharts-point"></rect><rect x="202" y="97" width="2" height="0" fill="rgba(132, 184, 235, 0.8)" class="highcharts-point"></rect><rect x="204" y="97" width="2" height="0" fill="rgba(132, 184, 235, 0.8)" class="highcharts-point"></rect><rect x="206" y="97" width="2" height="0" fill="rgba(132, 184, 235, 0.8)" class="highcharts-point"></rect><rect x="209" y="97" width="2" height="0" fill="rgba(132, 184, 235, 0.8)" class="highcharts-point"></rect><rect x="211" y="97" width="2" height="0" fill="rgba(132, 184, 235, 0.8)" class="highcharts-point"></rect><rect x="213" y="97" width="2" height="0" fill="rgba(132, 184, 235, 0.8)" class="highcharts-point"></rect><rect x="215" y="96" width="2" height="1" fill="rgba(132, 184, 235, 0.8)" class="highcharts-point"></rect><rect x="218" y="97" width="2" height="0" fill="rgba(132, 184, 235, 0.8)" class="highcharts-point"></rect><rect x="220" y="96" width="2" height="1" fill="rgba(132, 184, 235, 0.8)" class="highcharts-point"></rect><rect x="222" y="97" width="2" height="0" fill="rgba(132, 184, 235, 0.8)" class="highcharts-point"></rect><rect x="224" y="97" width="2" height="0" fill="rgba(132, 184, 235, 0.8)" class="highcharts-point"></rect><rect x="227" y="97" width="2" height="0" fill="rgba(132, 184, 235, 0.8)" class="highcharts-point"></rect><rect x="229" y="97" width="2" height="0" fill="rgba(132, 184, 235, 0.8)" class="highcharts-point"></rect><rect x="231" y="97" width="2" height="0" fill="rgba(132, 184, 235, 0.8)" class="highcharts-point"></rect><rect x="233" y="97" width="2" height="0" fill="rgba(132, 184, 235, 0.8)" class="highcharts-point"></rect><rect x="235" y="96" width="2" height="1" fill="rgba(132, 184, 235, 0.8)" class="highcharts-point"></rect><rect x="238" y="97" width="2" height="0" fill="rgba(132, 184, 235, 0.8)" class="highcharts-point"></rect><rect x="240" y="97" width="2" height="0" fill="rgba(132, 184, 235, 0.8)" class="highcharts-point"></rect><rect x="242" y="97" width="2" height="0" fill="rgba(132, 184, 235, 0.8)" class="highcharts-point"></rect><rect x="244" y="97" width="2" height="0" fill="rgba(132, 184, 235, 0.8)" class="highcharts-point"></rect><rect x="247" y="97" width="2" height="0" fill="rgba(132, 184, 235, 0.8)" class="highcharts-point"></rect><rect x="249" y="97" width="2" height="0" fill="rgba(132, 184, 235, 0.8)" class="highcharts-point"></rect><rect x="251" y="95" width="2" height="2" fill="rgba(132, 184, 235, 0.8)" class="highcharts-point"></rect><rect x="253" y="96" width="2" height="1" fill="rgba(132, 184, 235, 0.8)" class="highcharts-point"></rect><rect x="256" y="97" width="2" height="0" fill="rgba(132, 184, 235, 0.8)" class="highcharts-point"></rect><rect x="258" y="97" width="2" height="0" fill="rgba(132, 184, 235, 0.8)" class="highcharts-point"></rect><rect x="260" y="97" width="2" height="0" fill="rgba(132, 184, 235, 0.8)" class="highcharts-point"></rect><rect x="262" y="97" width="2" height="0" fill="rgba(132, 184, 235, 0.8)" class="highcharts-point"></rect><rect x="265" y="97" width="2" height="0" fill="rgba(132, 184, 235, 0.8)" class="highcharts-point"></rect><rect x="267" y="97" width="2" height="0" fill="rgba(132, 184, 235, 0.8)" class="highcharts-point"></rect><rect x="269" y="97" width="2" height="0" fill="rgba(132, 184, 235, 0.8)" class="highcharts-point"></rect><rect x="271" y="95" width="2" height="2" fill="rgba(132, 184, 235, 0.8)" class="highcharts-point"></rect><rect x="274" y="94" width="2" height="3" fill="rgba(132, 184, 235, 0.8)" class="highcharts-point"></rect><rect x="276" y="97" width="2" height="0" fill="rgba(132, 184, 235, 0.8)" class="highcharts-point"></rect><rect x="278" y="96" width="2" height="1" fill="rgba(132, 184, 235, 0.8)" class="highcharts-point"></rect><rect x="280" y="92" width="2" height="5" fill="rgba(132, 184, 235, 0.8)" class="highcharts-point"></rect><rect x="282" y="97" width="2" height="0" fill="rgba(132, 184, 235, 0.8)" class="highcharts-point"></rect><rect x="285" y="95" width="2" height="2" fill="rgba(132, 184, 235, 0.8)" class="highcharts-point"></rect><rect x="287" y="97" width="2" height="0" fill="rgba(132, 184, 235, 0.8)" class="highcharts-point"></rect><rect x="289" y="97" width="2" height="0" fill="rgba(132, 184, 235, 0.8)" class="highcharts-point"></rect><rect x="291" y="93" width="2" height="4" fill="rgba(132, 184, 235, 0.8)" class="highcharts-point"></rect><rect x="294" y="95" width="2" height="2" fill="rgba(132, 184, 235, 0.8)" class="highcharts-point"></rect><rect x="296" y="93" width="2" height="4" fill="rgba(132, 184, 235, 0.8)" class="highcharts-point"></rect><rect x="298" y="97" width="2" height="0" fill="rgba(132, 184, 235, 0.8)" class="highcharts-point"></rect><rect x="300" y="96" width="2" height="1" fill="rgba(132, 184, 235, 0.8)" class="highcharts-point"></rect><rect x="303" y="96" width="2" height="1" fill="rgba(132, 184, 235, 0.8)" class="highcharts-point"></rect><rect x="305" y="94" width="2" height="3" fill="rgba(132, 184, 235, 0.8)" class="highcharts-point"></rect><rect x="307" y="97" width="2" height="0" fill="rgba(132, 184, 235, 0.8)" class="highcharts-point"></rect><rect x="309" y="96" width="2" height="1" fill="rgba(132, 184, 235, 0.8)" class="highcharts-point"></rect><rect x="312" y="96" width="2" height="1" fill="rgba(132, 184, 235, 0.8)" class="highcharts-point"></rect><rect x="314" y="96" width="2" height="1" fill="rgba(132, 184, 235, 0.8)" class="highcharts-point"></rect><rect x="316" y="95" width="2" height="2" fill="rgba(132, 184, 235, 0.8)" class="highcharts-point"></rect><rect x="318" y="97" width="2" height="0" fill="rgba(132, 184, 235, 0.8)" class="highcharts-point"></rect><rect x="321" y="97" width="2" height="0" fill="rgba(132, 184, 235, 0.8)" class="highcharts-point"></rect><rect x="323" y="96" width="2" height="1" fill="rgba(132, 184, 235, 0.8)" class="highcharts-point"></rect><rect x="325" y="95" width="2" height="2" fill="rgba(132, 184, 235, 0.8)" class="highcharts-point"></rect><rect x="327" y="97" width="2" height="0" fill="rgba(132, 184, 235, 0.8)" class="highcharts-point"></rect><rect x="329" y="67" width="2" height="30" fill="rgba(132, 184, 235, 0.8)" class="highcharts-point"></rect><rect x="332" y="96" width="2" height="1" fill="rgba(132, 184, 235, 0.8)" class="highcharts-point"></rect><rect x="334" y="91" width="2" height="6" fill="rgba(132, 184, 235, 0.8)" class="highcharts-point"></rect><rect x="336" y="86" width="2" height="11" fill="rgba(132, 184, 235, 0.8)" class="highcharts-point"></rect><rect x="338" y="95" width="2" height="2" fill="rgba(132, 184, 235, 0.8)" class="highcharts-point"></rect><rect x="341" y="97" width="2" height="0" fill="rgba(132, 184, 235, 0.8)" class="highcharts-point"></rect><rect x="343" y="97" width="2" height="0" fill="rgba(132, 184, 235, 0.8)" class="highcharts-point"></rect><rect x="345" y="97" width="2" height="0" fill="rgba(132, 184, 235, 0.8)" class="highcharts-point"></rect><rect x="347" y="97" width="2" height="0" fill="rgba(132, 184, 235, 0.8)" class="highcharts-point"></rect><rect x="350" y="96" width="2" height="1" fill="rgba(132, 184, 235, 0.8)" class="highcharts-point"></rect><rect x="352" y="97" width="2" height="0" fill="rgba(132, 184, 235, 0.8)" class="highcharts-point"></rect><rect x="354" y="97" width="2" height="0" fill="rgba(132, 184, 235, 0.8)" class="highcharts-point"></rect><rect x="356" y="97" width="2" height="0" fill="rgba(132, 184, 235, 0.8)" class="highcharts-point"></rect><rect x="359" y="96" width="2" height="1" fill="rgba(132, 184, 235, 0.8)" class="highcharts-point"></rect><rect x="361" y="96" width="2" height="1" fill="rgba(132, 184, 235, 0.8)" class="highcharts-point"></rect><rect x="363" y="96" width="2" height="1" fill="rgba(132, 184, 235, 0.8)" class="highcharts-point"></rect><rect x="365" y="97" width="2" height="0" fill="rgba(132, 184, 235, 0.8)" class="highcharts-point"></rect><rect x="368" y="95" width="2" height="2" fill="rgba(132, 184, 235, 0.8)" class="highcharts-point"></rect><rect x="370" y="97" width="2" height="0" fill="rgba(132, 184, 235, 0.8)" class="highcharts-point"></rect><rect x="372" y="96" width="2" height="1" fill="rgba(132, 184, 235, 0.8)" class="highcharts-point"></rect><rect x="374" y="97" width="2" height="0" fill="rgba(132, 184, 235, 0.8)" class="highcharts-point"></rect><rect x="377" y="97" width="2" height="0" fill="rgba(132, 184, 235, 0.8)" class="highcharts-point"></rect><rect x="379" y="97" width="2" height="0" fill="rgba(132, 184, 235, 0.8)" class="highcharts-point"></rect><rect x="381" y="97" width="2" height="0" fill="rgba(132, 184, 235, 0.8)" class="highcharts-point"></rect><rect x="383" y="96" width="2" height="1" fill="rgba(132, 184, 235, 0.8)" class="highcharts-point"></rect><rect x="385" y="96" width="2" height="1" fill="rgba(132, 184, 235, 0.8)" class="highcharts-point"></rect><rect x="388" y="97" width="2" height="0" fill="rgba(132, 184, 235, 0.8)" class="highcharts-point"></rect><rect x="390" y="97" width="2" height="0" fill="rgba(132, 184, 235, 0.8)" class="highcharts-point"></rect><rect x="392" y="97" width="2" height="0" fill="rgba(132, 184, 235, 0.8)" class="highcharts-point"></rect><rect x="394" y="81" width="2" height="16" fill="rgba(132, 184, 235, 0.8)" class="highcharts-point"></rect><rect x="397" y="97" width="2" height="0" fill="rgba(132, 184, 235, 0.8)" class="highcharts-point"></rect><rect x="399" y="97" width="2" height="0" fill="rgba(132, 184, 235, 0.8)" class="highcharts-point"></rect><rect x="401" y="97" width="2" height="0" fill="rgba(132, 184, 235, 0.8)" class="highcharts-point"></rect><rect x="403" y="97" width="2" height="0" fill="rgba(132, 184, 235, 0.8)" class="highcharts-point"></rect><rect x="406" y="97" width="2" height="0" fill="rgba(132, 184, 235, 0.8)" class="highcharts-point"></rect><rect x="408" y="97" width="2" height="0" fill="rgba(132, 184, 235, 0.8)" class="highcharts-point"></rect><rect x="410" y="97" width="2" height="0" fill="rgba(132, 184, 235, 0.8)" class="highcharts-point"></rect><rect x="412" y="97" width="2" height="0" fill="rgba(132, 184, 235, 0.8)" class="highcharts-point"></rect><rect x="415" y="97" width="2" height="0" fill="rgba(132, 184, 235, 0.8)" class="highcharts-point"></rect><rect x="417" y="82" width="2" height="15" fill="rgba(132, 184, 235, 0.8)" class="highcharts-point"></rect><rect x="419" y="46" width="2" height="51" fill="rgba(132, 184, 235, 0.8)" class="highcharts-point"></rect><rect x="421" y="96" width="2" height="1" fill="rgba(132, 184, 235, 0.8)" class="highcharts-point"></rect><rect x="424" y="83" width="2" height="14" fill="rgba(132, 184, 235, 0.8)" class="highcharts-point"></rect><rect x="426" y="97" width="2" height="0" fill="rgba(132, 184, 235, 0.8)" class="highcharts-point"></rect><rect x="428" y="96" width="2" height="1" fill="rgba(132, 184, 235, 0.8)" class="highcharts-point"></rect><rect x="430" y="97" width="2" height="0" fill="rgba(132, 184, 235, 0.8)" class="highcharts-point"></rect><rect x="432" y="97" width="2" height="0" fill="rgba(132, 184, 235, 0.8)" class="highcharts-point"></rect><rect x="435" y="96" width="2" height="1" fill="rgba(132, 184, 235, 0.8)" class="highcharts-point"></rect><rect x="437" y="90" width="2" height="7" fill="rgba(132, 184, 235, 0.8)" class="highcharts-point"></rect><rect x="439" y="81" width="2" height="16" fill="rgba(132, 184, 235, 0.8)" class="highcharts-point"></rect><rect x="441" y="97" width="2" height="0" fill="rgba(132, 184, 235, 0.8)" class="highcharts-point"></rect><rect x="444" y="97" width="2" height="0" fill="rgba(132, 184, 235, 0.8)" class="highcharts-point"></rect><rect x="446" y="97" width="2" height="0" fill="rgba(132, 184, 235, 0.8)" class="highcharts-point"></rect><rect x="448" y="97" width="2" height="0" fill="rgba(132, 184, 235, 0.8)" class="highcharts-point"></rect><rect x="450" y="97" width="2" height="0" fill="rgba(132, 184, 235, 0.8)" class="highcharts-point"></rect><rect x="453" y="97" width="2" height="0" fill="rgba(132, 184, 235, 0.8)" class="highcharts-point"></rect><rect x="455" y="92" width="2" height="5" fill="rgba(132, 184, 235, 0.8)" class="highcharts-point"></rect><rect x="457" y="97" width="2" height="0" fill="rgba(132, 184, 235, 0.8)" class="highcharts-point"></rect><rect x="459" y="83" width="2" height="14" fill="rgba(132, 184, 235, 0.8)" class="highcharts-point"></rect><rect x="462" y="97" width="2" height="0" fill="rgba(132, 184, 235, 0.8)" class="highcharts-point"></rect><rect x="464" y="94" width="2" height="3" fill="rgba(132, 184, 235, 0.8)" class="highcharts-point"></rect><rect x="466" y="97" width="2" height="0" fill="rgba(132, 184, 235, 0.8)" class="highcharts-point"></rect><rect x="468" y="95" width="2" height="2" fill="rgba(132, 184, 235, 0.8)" class="highcharts-point"></rect><rect x="471" y="97" width="2" height="0" fill="rgba(132, 184, 235, 0.8)" class="highcharts-point"></rect><rect x="473" y="97" width="2" height="0" fill="rgba(132, 184, 235, 0.8)" class="highcharts-point"></rect><rect x="475" y="97" width="2" height="0" fill="rgba(132, 184, 235, 0.8)" class="highcharts-point"></rect><rect x="477" y="97" width="2" height="0" fill="rgba(132, 184, 235, 0.8)" class="highcharts-point"></rect><rect x="479" y="97" width="2" height="0" fill="rgba(132, 184, 235, 0.8)" class="highcharts-point"></rect><rect x="482" y="97" width="2" height="0" fill="rgba(132, 184, 235, 0.8)" class="highcharts-point"></rect><rect x="484" y="91" width="2" height="6" fill="rgba(132, 184, 235, 0.8)" class="highcharts-point"></rect><rect x="486" y="87" width="2" height="10" fill="rgba(132, 184, 235, 0.8)" class="highcharts-point"></rect><rect x="488" y="93" width="2" height="4" fill="rgba(132, 184, 235, 0.8)" class="highcharts-point"></rect><rect x="491" y="95" width="2" height="2" fill="rgba(132, 184, 235, 0.8)" class="highcharts-point"></rect><rect x="493" y="97" width="2" height="0" fill="rgba(132, 184, 235, 0.8)" class="highcharts-point"></rect><rect x="495" y="97" width="2" height="0" fill="rgba(132, 184, 235, 0.8)" class="highcharts-point"></rect><rect x="497" y="97" width="2" height="0" fill="rgba(132, 184, 235, 0.8)" class="highcharts-point"></rect><rect x="500" y="97" width="2" height="0" fill="rgba(132, 184, 235, 0.8)" class="highcharts-point"></rect><rect x="502" y="94" width="2" height="3" fill="rgba(132, 184, 235, 0.8)" class="highcharts-point"></rect><rect x="504" y="97" width="2" height="0" fill="rgba(132, 184, 235, 0.8)" class="highcharts-point"></rect><rect x="506" y="91" width="2" height="6" fill="rgba(132, 184, 235, 0.8)" class="highcharts-point"></rect><rect x="509" y="93" width="2" height="4" fill="rgba(132, 184, 235, 0.8)" class="highcharts-point"></rect><rect x="511" y="97" width="2" height="0" fill="rgba(132, 184, 235, 0.8)" class="highcharts-point"></rect><rect x="513" y="87" width="2" height="10" fill="rgba(132, 184, 235, 0.8)" class="highcharts-point"></rect><rect x="515" y="97" width="2" height="0" fill="rgba(132, 184, 235, 0.8)" class="highcharts-point"></rect><rect x="518" y="97" width="2" height="0" fill="rgba(132, 184, 235, 0.8)" class="highcharts-point"></rect><rect x="520" y="97" width="2" height="0" fill="rgba(132, 184, 235, 0.8)" class="highcharts-point"></rect><rect x="522" y="97" width="2" height="0" fill="rgba(132, 184, 235, 0.8)" class="highcharts-point"></rect><rect x="524" y="97" width="2" height="0" fill="rgba(132, 184, 235, 0.8)" class="highcharts-point"></rect><rect x="527" y="96" width="2" height="1" fill="rgba(132, 184, 235, 0.8)" class="highcharts-point"></rect><rect x="529" y="84" width="2" height="13" fill="rgba(132, 184, 235, 0.8)" class="highcharts-point"></rect><rect x="531" y="97" width="2" height="0" fill="rgba(132, 184, 235, 0.8)" class="highcharts-point"></rect><rect x="533" y="97" width="2" height="0" fill="rgba(132, 184, 235, 0.8)" class="highcharts-point"></rect><rect x="535" y="97" width="2" height="0" fill="rgba(132, 184, 235, 0.8)" class="highcharts-point"></rect><rect x="538" y="97" width="2" height="0" fill="rgba(132, 184, 235, 0.8)" class="highcharts-point"></rect><rect x="540" y="96" width="2" height="1" fill="rgba(132, 184, 235, 0.8)" class="highcharts-point"></rect><rect x="542" y="97" width="2" height="0" fill="rgba(132, 184, 235, 0.8)" class="highcharts-point"></rect><rect x="544" y="96" width="2" height="1" fill="rgba(132, 184, 235, 0.8)" class="highcharts-point"></rect><rect x="547" y="97" width="2" height="0" fill="rgba(132, 184, 235, 0.8)" class="highcharts-point"></rect><rect x="549" y="97" width="2" height="0" fill="rgba(132, 184, 235, 0.8)" class="highcharts-point"></rect><rect x="551" y="97" width="2" height="0" fill="rgba(132, 184, 235, 0.8)" class="highcharts-point"></rect><rect x="553" y="96" width="2" height="1" fill="rgba(132, 184, 235, 0.8)" class="highcharts-point"></rect><rect x="556" y="96" width="2" height="1" fill="rgba(132, 184, 235, 0.8)" class="highcharts-point"></rect><rect x="558" y="97" width="2" height="0" fill="rgba(132, 184, 235, 0.8)" class="highcharts-point"></rect><rect x="560" y="95" width="2" height="2" fill="rgba(132, 184, 235, 0.8)" class="highcharts-point"></rect><rect x="562" y="97" width="2" height="0" fill="rgba(132, 184, 235, 0.8)" class="highcharts-point"></rect><rect x="565" y="97" width="2" height="0" fill="rgba(132, 184, 235, 0.8)" class="highcharts-point"></rect><rect x="567" y="88" width="2" height="9" fill="rgba(132, 184, 235, 0.8)" class="highcharts-point"></rect><rect x="569" y="97" width="2" height="0" fill="rgba(132, 184, 235, 0.8)" class="highcharts-point"></rect><rect x="571" y="89" width="2" height="8" fill="rgba(132, 184, 235, 0.8)" class="highcharts-point"></rect><rect x="574" y="97" width="2" height="0" fill="rgba(132, 184, 235, 0.8)" class="highcharts-point"></rect><rect x="576" y="96" width="2" height="1" fill="rgba(132, 184, 235, 0.8)" class="highcharts-point"></rect><rect x="578" y="96" width="2" height="1" fill="rgba(132, 184, 235, 0.8)" class="highcharts-point"></rect><rect x="580" y="96" width="2" height="1" fill="rgba(132, 184, 235, 0.8)" class="highcharts-point"></rect><rect x="582" y="97" width="2" height="0" fill="rgba(132, 184, 235, 0.8)" class="highcharts-point"></rect><rect x="585" y="96" width="2" height="1" fill="rgba(132, 184, 235, 0.8)" class="highcharts-point"></rect><rect x="587" y="97" width="2" height="0" fill="rgba(132, 184, 235, 0.8)" class="highcharts-point"></rect><rect x="589" y="97" width="2" height="0" fill="rgba(132, 184, 235, 0.8)" class="highcharts-point"></rect><rect x="591" y="97" width="2" height="0" fill="rgba(132, 184, 235, 0.8)" class="highcharts-point"></rect><rect x="594" y="96" width="2" height="1" fill="rgba(132, 184, 235, 0.8)" class="highcharts-point"></rect><rect x="596" y="92" width="2" height="5" fill="rgba(132, 184, 235, 0.8)" class="highcharts-point"></rect><rect x="598" y="95" width="2" height="2" fill="rgba(132, 184, 235, 0.8)" class="highcharts-point"></rect><rect x="600" y="95" width="2" height="2" fill="rgba(132, 184, 235, 0.8)" class="highcharts-point"></rect><rect x="603" y="95" width="2" height="2" fill="rgba(132, 184, 235, 0.8)" class="highcharts-point"></rect><rect x="605" y="97" width="2" height="0" fill="rgba(132, 184, 235, 0.8)" class="highcharts-point"></rect><rect x="607" y="97" width="2" height="0" fill="rgba(132, 184, 235, 0.8)" class="highcharts-point"></rect><rect x="609" y="97" width="2" height="0" fill="rgba(132, 184, 235, 0.8)" class="highcharts-point"></rect><rect x="612" y="95" width="2" height="2" fill="rgba(132, 184, 235, 0.8)" class="highcharts-point"></rect><rect x="614" y="80" width="2" height="17" fill="rgba(132, 184, 235, 0.8)" class="highcharts-point"></rect><rect x="616" y="92" width="2" height="5" fill="rgba(132, 184, 235, 0.8)" class="highcharts-point"></rect><rect x="618" y="96" width="2" height="1" fill="rgba(132, 184, 235, 0.8)" class="highcharts-point"></rect><rect x="621" y="95" width="2" height="2" fill="rgba(132, 184, 235, 0.8)" class="highcharts-point"></rect><rect x="623" y="93" width="2" height="4" fill="rgba(132, 184, 235, 0.8)" class="highcharts-point"></rect><rect x="625" y="92" width="2" height="5" fill="rgba(132, 184, 235, 0.8)" class="highcharts-point"></rect><rect x="627" y="95" width="2" height="2" fill="rgba(132, 184, 235, 0.8)" class="highcharts-point"></rect><rect x="629" y="94" width="2" height="3" fill="rgba(132, 184, 235, 0.8)" class="highcharts-point"></rect><rect x="632" y="95" width="2" height="2" fill="rgba(132, 184, 235, 0.8)" class="highcharts-point"></rect><rect x="634" y="94" width="2" height="3" fill="rgba(132, 184, 235, 0.8)" class="highcharts-point"></rect><rect x="636" y="97" width="2" height="0" fill="rgba(132, 184, 235, 0.8)" class="highcharts-point"></rect><rect x="638" y="96" width="2" height="1" fill="rgba(132, 184, 235, 0.8)" class="highcharts-point"></rect><rect x="641" y="95" width="2" height="2" fill="rgba(132, 184, 235, 0.8)" class="highcharts-point"></rect><rect x="643" y="96" width="2" height="1" fill="rgba(132, 184, 235, 0.8)" class="highcharts-point"></rect><rect x="645" y="97" width="2" height="0" fill="rgba(132, 184, 235, 0.8)" class="highcharts-point"></rect></g><g class="highcharts-markers highcharts-series-1 highcharts-column-series " transform="translate(0,222) scale(1 1)" clip-path="none"></g><g class="highcharts-series highcharts-series-0 highcharts-area-series highcharts-color-0 " transform="translate(0,53) scale(1 1)" clip-path="url(#highcharts-fei0ufw-2)"><path fill="rgba(132,184,235,0.3)" d="M 1.1193771626298 15.256308450036556 L 3.3581314878893 15.323930522625204 L 5.5968858131488 17.555458918066506 L 7.8356401384083 18.16405757137386 L 10.074394463668 15.932529175925168 L 12.313148788927 21.409917055662845 L 14.551903114187 21.748027418607165 L 16.790657439446 21.27467291048555 L 19.029411764706 21.61278327342987 L 21.268166089965 22.559492289681515 L 23.506920415225 19.31363280539253 L 25.745674740484 23.303335088159855 L 27.984429065744 24.65577653994447 L 30.223183391003 26.278706282093168 L 32.461937716263 22.153759854141185 L 34.700692041522 16.27063953887054 L 36.939446366782 21.342294983074197 L 39.178200692042 18.90790036985956 L 41.416955017301 22.153759854141185 L 43.655709342561 20.4632080394112 L 45.89446366782 25.196753120663175 L 48.13321799308 23.235713015570155 L 50.371972318339 28.577856750123146 L 52.610726643599 33.04091354101945 L 54.849480968858 32.70280317807513 L 57.088235294118 30.80938514557181 L 59.326989619377 34.393354992805115 L 61.565743944637 33.243779758786474 L 63.804498269896 36.0839068075351 L 66.043252595156 37.842080694861124 L 68.282006920415 42.372759558346104 L 70.520761245675 42.372759558346104 L 72.759515570934 35.94866266235675 L 74.998269896194 35.20481986387949 L 77.237024221453 31.82371623441213 L 79.475778546713 28.239746387178826 L 81.714532871972 30.268408564860493 L 83.953287197232 29.862676129319112 L 86.192041522491 33.8523784120938 L 88.430795847751 28.44261260494477 L 90.66955017301 26.14346213690851 L 92.90830449827 21.13942876529981 L 95.147058823529 17.35259270029951 L 97.385813148789 14.444843578962207 L 99.624567474048 16.67637197441087 L 101.86332179931 12.619047619047535 L 104.10207612457 16.743994046999518 L 106.34083044983 22.153759854141185 L 108.57958477509 23.43857923333715 L 110.81833910035 19.381254877981178 L 113.05709342561 18.096435498785212 L 115.29584775087 22.559492289681515 L 117.53460207612 19.584121095748174 L 119.77335640138 18.90790036985956 L 122.01211072664 19.854609386103846 L 124.2508650519 25.06150897548585 L 126.48961937716 33.8523784120938 L 128.72837370242 31.82371623441213 L 130.96712802768 31.82371623441213 L 133.20588235294 24.58815446735582 L 135.4446366782 24.2500441044115 L 137.68339100346 23.43857923333715 L 139.92214532872 28.78072296789648 L 142.16089965398 29.321699548607796 L 144.39965397924 22.153759854141185 L 146.6384083045 22.153759854141185 L 148.87716262976 22.153759854141185 L 151.11591695502 25.602485556197195 L 153.35467128028 29.99792027450485 L 155.59342560554 28.10450224200048 L 157.8321799308 26.075840064318783 L 160.07093425606 27.02254908057151 L 162.30968858131 27.02254908057151 L 164.54844290657 27.901636024233454 L 166.78719723183 32.63518110548648 L 169.02595155709 29.321699548607796 L 171.26470588235 29.321699548607796 L 173.50346020761 32.90566939584215 L 175.74221453287 31.350361726289464 L 177.98096885813 34.12286670244947 L 180.21972318339 38.0449469126271 L 182.45847750865 38.0449469126271 L 184.69723183391 37.90970276744977 L 186.93598615917 39.667876654775796 L 189.17474048443 39.735498727364444 L 191.41349480969 35.881040589768105 L 193.65224913495 35.00195364611247 L 195.89100346021 27.69876980646751 L 198.12975778547 34.93433157352382 L 200.36851211073 34.93433157352382 L 202.60726643599 27.02254908057151 L 204.84602076125 27.69876980646751 L 207.08477508651 30.200786492270794 L 209.32352941176 39.735498727364444 L 211.56228373702 39.667876654775796 L 213.80103806228 38.72116763852412 L 216.03979238754 38.72116763852412 L 218.2785467128 39.735498727364444 L 220.51730103806 34.32573292021647 L 222.75605536332 26.54919457244884 L 224.99480968858 21.477539128251493 L 227.23356401384 20.666074257178195 L 229.4723183391 22.35662607190713 L 231.71107266436 31.688472089234835 L 233.94982698962 35.67817437200111 L 236.18858131488 35.74579644459081 L 238.42733564014 42.4403816309358 L 240.6660899654 40.005987017720116 L 242.90484429066 34.25811084762677 L 245.14359861592 42.710869921290396 L 247.38235294118 39.93836494513147 L 249.62110726644 40.20885323548711 L 251.8598615917 37.97732484003842 L 254.09861591695 37.63921447709413 L 256.33737024221 41.223184324327434 L 258.57612456747 38.924033856290094 L 260.81487889273 36.0839068075351 L 263.05363321799 34.52859913798244 L 265.29238754325 42.4403816309358 L 267.53114186851 42.84611406646877 L 269.76989619377 42.5756257761131 L 272.00865051903 56.91150516504001 L 274.24740484429 67.73103677933068 L 276.48615916955 65.36426423870364 L 278.72491349481 79.15916704692765 L 280.96366782007 88.1529027013026 L 283.20242214533 93.49504643585453 L 285.44117647059 90.31680902416159 L 287.67993079585 94.6446216698732 L 289.91868512111 86.05661845103228 L 292.15743944637 90.65491938710588 L 294.39619377163 88.62625720942526 L 296.63494809689 78.41532424844195 L 298.87370242215 77.33337108701298 L 301.1124567474 76.72477243371196 L 303.35121107266 80.44398642612362 L 305.58996539792 77.8743476677306 L 307.82871972318 94.10364508916189 L 310.06747404844 104.31457805014415 L 312.3062283737 95.3208423957692 L 314.54498269896 85.31277565255394 L 316.78373702422 96.94377213791054 L 319.02249134948 92.68358156478754 L 321.26124567474 94.23888923434023 L 323.5 85.65088601549826 L 325.73875432526 104.7879325582742 L 327.97750865052 107.01946095371551 L 330.21626297578 102.2182937998812 L 332.45501730104 104.44982219532253 L 334.6937716263 103.30024696130386 L 336.93252595156 107.96616996996718 L 339.17128027682 106.00512986488152 L 341.41003460208 104.2469559775555 L 343.64878892734 102.82689245318119 L 345.8875432526 96.33517348461058 L 348.12629757785 95.65895275871458 L 350.36505190311 91.33114011300293 L 352.60380622837 95.45608654094755 L 354.84256055363 96.74090592014352 L 357.08131487889 87.40905990281689 L 359.32006920415 84.77179907183523 L 361.55882352941 79.63252155505032 L 363.79757785467 81.12020715201328 L 366.03633217993 79.83538777281626 L 368.27508650519 87.00332746728392 L 370.51384083045 92.21022705665857 L 372.75259515571 88.62625720942526 L 374.99134948097 90.58729731451723 L 377.23010380623 88.35576891906959 L 379.46885813149 93.76876737545308 L 381.70761245675 100.0576201262651 L 383.94636678201 100.66621877956507 L 386.18512110727 97.01462685974207 L 388.42387543253 100.26048634403108 L 390.66262975779 100.32810841662078 L 392.90138408304 102.76250302983541 L 395.1401384083 104.31781069938705 L 397.37889273356 103.5739679009024 L 399.61764705882 104.31781069938705 L 401.85640138408 93.90401152063777 L 404.09515570934 92.55157006884576 L 406.3339100346 100.12524219885375 L 408.57266435986 101.6805498684054 L 410.81141868512 106.54933909483572 L 413.05017301038 104.99403142528408 L 415.28892733564 109.45708821617302 L 417.5276816609 147.73118130171756 L 419.76643598616 243.51534731719084 L 422.00519031142 224.04019041147058 L 424.24394463668 200.50770915039436 L 426.48269896194 209.5014448047693 L 428.7214532872 215.38456512003995 L 430.96020761246 218.2246921687886 L 433.19896193772 216.80462864441427 L 435.43771626298 215.24932097486266 L 437.67647058824 208.960468224058 L 439.91522491349 206.02033021733826 L 442.15397923875 210.28052079046756 L 444.39273356401 213.45875820216793 L 446.63148788927 220.08572131591689 L 448.87024221453 217.38083841234658 L 451.10899653979 225.42786505046882 L 453.34775086505 229.01183489770318 L 455.58650519031 225.8335974860102 L 457.82525951557 218.32754742859086 L 460.06401384083 213.86449063770087 L 462.30276816609 217.78657084787955 L 464.54152249135 206.41915305408443 L 466.78027681661 206.41915305408443 L 469.01903114187 234.46064159156657 L 471.25778546713 238.9478738196767 L 473.49653979239 238.9478738196767 L 475.73529411765 229.07505122163872 L 477.97404844291 226.9111448987787 L 480.21280276817 232.0504224155647 L 482.45155709343 230.22462645565741 L 484.69031141869 227.5873656246747 L 486.92906574394 237.73067651306832 L 489.1678200692 227.11401111654573 L 491.40657439446 229.21029536681604 L 493.64532871972 227.18163318914173 L 495.88408304498 229.00742914904902 L 498.12283737024 229.00742914904902 L 500.3615916955 228.93980707646037 L 502.60034602076 231.64468998003068 L 504.83910034602 243.7490409735173 L 507.07785467128 242.32029279932536 L 509.31660899654 247.32432617093403 L 511.5553633218 244.01084461405534 L 513.79411764706 244.078466686644 L 516.03287197232 248.20341311459705 L 518.27162629758 248.20341311459705 L 520.51038062284 248.20341311459705 L 522.7491349481 255.57421902683066 L 524.98788927336 245.90426264655972 L 527.22664359862 259.49629923700826 L 529.46539792388 239.6830319683437 L 531.70415224913 240.56211891199933 L 533.94290657439 238.60107880691476 L 536.18166089965 229.4044769347654 L 538.42041522491 232.9884467819987 L 540.65916955017 244.46835824778307 L 542.89792387543 245.75317762697904 L 545.13667820069 246.83726823444928 L 547.37543252595 229.25552936123233 L 549.61418685121 216.20446935149403 L 551.85294117647 216.7692863697742 L 554.09169550173 217.10739673271956 L 556.33044982699 212.91482823218522 L 558.56920415225 212.77958408700792 L 560.80795847751 212.64433994182218 L 563.04671280277 210.68329983673655 L 565.28546712803 212.50909579664489 L 567.52422145329 219.11606292221197 L 569.76297577855 216.88453452676436 L 572.00173010381 219.58941743034202 L 574.24048442907 218.034109760783 L 576.47923875433 214.45013991354864 L 578.71799307958 210.86617006631536 L 580.95674740484 225.60915913328725 L 583.1955017301 228.38166410944726 L 585.43425605536 227.82140001348654 L 587.67301038062 227.88902208607624 L 589.91176470588 227.88902208607624 L 592.15051903114 228.42999866679386 L 594.3892733564 232.48732302214984 L 596.62802768166 232.48732302214984 L 598.86678200692 231.81110229625386 L 601.10553633218 232.30455224470364 L 603.34429065744 222.90508415478834 L 605.5830449827 220.33544539639536 L 607.82179930796 223.85179317104001 L 610.06055363322 220.403067468984 L 612.29930795848 212.15317461308737 L 614.53806228374 212.829395338976 L 616.776816609 212.89701741157202 L 619.01557093426 205.99956600746003 L 621.25432525952 219.3887363801437 L 623.49307958478 232.37217431728493 L 625.73183391003 229.87015763148162 L 627.97058823529 238.66102706809696 L 630.20934256055 213.03226155675037 L 632.44809688581 196.1943654820118 L 634.68685121107 186.59203117432946 L 636.92560553633 193.21899428807842 L 639.16435986159 192.74563977995575 L 641.40311418685 196.73534206272308 L 643.64186851211 190.3788672393298 L 645.88062283737 186.1186766662068 L 645.88062283737 265 L 643.64186851211 265 L 641.40311418685 265 L 639.16435986159 265 L 636.92560553633 265 L 634.68685121107 265 L 632.44809688581 265 L 630.20934256055 265 L 627.97058823529 265 L 625.73183391003 265 L 623.49307958478 265 L 621.25432525952 265 L 619.01557093426 265 L 616.776816609 265 L 614.53806228374 265 L 612.29930795848 265 L 610.06055363322 265 L 607.82179930796 265 L 605.5830449827 265 L 603.34429065744 265 L 601.10553633218 265 L 598.86678200692 265 L 596.62802768166 265 L 594.3892733564 265 L 592.15051903114 265 L 589.91176470588 265 L 587.67301038062 265 L 585.43425605536 265 L 583.1955017301 265 L 580.95674740484 265 L 578.71799307958 265 L 576.47923875433 265 L 574.24048442907 265 L 572.00173010381 265 L 569.76297577855 265 L 567.52422145329 265 L 565.28546712803 265 L 563.04671280277 265 L 560.80795847751 265 L 558.56920415225 265 L 556.33044982699 265 L 554.09169550173 265 L 551.85294117647 265 L 549.61418685121 265 L 547.37543252595 265 L 545.13667820069 265 L 542.89792387543 265 L 540.65916955017 265 L 538.42041522491 265 L 536.18166089965 265 L 533.94290657439 265 L 531.70415224913 265 L 529.46539792388 265 L 527.22664359862 265 L 524.98788927336 265 L 522.7491349481 265 L 520.51038062284 265 L 518.27162629758 265 L 516.03287197232 265 L 513.79411764706 265 L 511.5553633218 265 L 509.31660899654 265 L 507.07785467128 265 L 504.83910034602 265 L 502.60034602076 265 L 500.3615916955 265 L 498.12283737024 265 L 495.88408304498 265 L 493.64532871972 265 L 491.40657439446 265 L 489.1678200692 265 L 486.92906574394 265 L 484.69031141869 265 L 482.45155709343 265 L 480.21280276817 265 L 477.97404844291 265 L 475.73529411765 265 L 473.49653979239 265 L 471.25778546713 265 L 469.01903114187 265 L 466.78027681661 265 L 464.54152249135 265 L 462.30276816609 265 L 460.06401384083 265 L 457.82525951557 265 L 455.58650519031 265 L 453.34775086505 265 L 451.10899653979 265 L 448.87024221453 265 L 446.63148788927 265 L 444.39273356401 265 L 442.15397923875 265 L 439.91522491349 265 L 437.67647058824 265 L 435.43771626298 265 L 433.19896193772 265 L 430.96020761246 265 L 428.7214532872 265 L 426.48269896194 265 L 424.24394463668 265 L 422.00519031142 265 L 419.76643598616 265 L 417.5276816609 265 L 415.28892733564 265 L 413.05017301038 265 L 410.81141868512 265 L 408.57266435986 265 L 406.3339100346 265 L 404.09515570934 265 L 401.85640138408 265 L 399.61764705882 265 L 397.37889273356 265 L 395.1401384083 265 L 392.90138408304 265 L 390.66262975779 265 L 388.42387543253 265 L 386.18512110727 265 L 383.94636678201 265 L 381.70761245675 265 L 379.46885813149 265 L 377.23010380623 265 L 374.99134948097 265 L 372.75259515571 265 L 370.51384083045 265 L 368.27508650519 265 L 366.03633217993 265 L 363.79757785467 265 L 361.55882352941 265 L 359.32006920415 265 L 357.08131487889 265 L 354.84256055363 265 L 352.60380622837 265 L 350.36505190311 265 L 348.12629757785 265 L 345.8875432526 265 L 343.64878892734 265 L 341.41003460208 265 L 339.17128027682 265 L 336.93252595156 265 L 334.6937716263 265 L 332.45501730104 265 L 330.21626297578 265 L 327.97750865052 265 L 325.73875432526 265 L 323.5 265 L 321.26124567474 265 L 319.02249134948 265 L 316.78373702422 265 L 314.54498269896 265 L 312.3062283737 265 L 310.06747404844 265 L 307.82871972318 265 L 305.58996539792 265 L 303.35121107266 265 L 301.1124567474 265 L 298.87370242215 265 L 296.63494809689 265 L 294.39619377163 265 L 292.15743944637 265 L 289.91868512111 265 L 287.67993079585 265 L 285.44117647059 265 L 283.20242214533 265 L 280.96366782007 265 L 278.72491349481 265 L 276.48615916955 265 L 274.24740484429 265 L 272.00865051903 265 L 269.76989619377 265 L 267.53114186851 265 L 265.29238754325 265 L 263.05363321799 265 L 260.81487889273 265 L 258.57612456747 265 L 256.33737024221 265 L 254.09861591695 265 L 251.8598615917 265 L 249.62110726644 265 L 247.38235294118 265 L 245.14359861592 265 L 242.90484429066 265 L 240.6660899654 265 L 238.42733564014 265 L 236.18858131488 265 L 233.94982698962 265 L 231.71107266436 265 L 229.4723183391 265 L 227.23356401384 265 L 224.99480968858 265 L 222.75605536332 265 L 220.51730103806 265 L 218.2785467128 265 L 216.03979238754 265 L 213.80103806228 265 L 211.56228373702 265 L 209.32352941176 265 L 207.08477508651 265 L 204.84602076125 265 L 202.60726643599 265 L 200.36851211073 265 L 198.12975778547 265 L 195.89100346021 265 L 193.65224913495 265 L 191.41349480969 265 L 189.17474048443 265 L 186.93598615917 265 L 184.69723183391 265 L 182.45847750865 265 L 180.21972318339 265 L 177.98096885813 265 L 175.74221453287 265 L 173.50346020761 265 L 171.26470588235 265 L 169.02595155709 265 L 166.78719723183 265 L 164.54844290657 265 L 162.30968858131 265 L 160.07093425606 265 L 157.8321799308 265 L 155.59342560554 265 L 153.35467128028 265 L 151.11591695502 265 L 148.87716262976 265 L 146.6384083045 265 L 144.39965397924 265 L 142.16089965398 265 L 139.92214532872 265 L 137.68339100346 265 L 135.4446366782 265 L 133.20588235294 265 L 130.96712802768 265 L 128.72837370242 265 L 126.48961937716 265 L 124.2508650519 265 L 122.01211072664 265 L 119.77335640138 265 L 117.53460207612 265 L 115.29584775087 265 L 113.05709342561 265 L 110.81833910035 265 L 108.57958477509 265 L 106.34083044983 265 L 104.10207612457 265 L 101.86332179931 265 L 99.624567474048 265 L 97.385813148789 265 L 95.147058823529 265 L 92.90830449827 265 L 90.66955017301 265 L 88.430795847751 265 L 86.192041522491 265 L 83.953287197232 265 L 81.714532871972 265 L 79.475778546713 265 L 77.237024221453 265 L 74.998269896194 265 L 72.759515570934 265 L 70.520761245675 265 L 68.282006920415 265 L 66.043252595156 265 L 63.804498269896 265 L 61.565743944637 265 L 59.326989619377 265 L 57.088235294118 265 L 54.849480968858 265 L 52.610726643599 265 L 50.371972318339 265 L 48.13321799308 265 L 45.89446366782 265 L 43.655709342561 265 L 41.416955017301 265 L 39.178200692042 265 L 36.939446366782 265 L 34.700692041522 265 L 32.461937716263 265 L 30.223183391003 265 L 27.984429065744 265 L 25.745674740484 265 L 23.506920415225 265 L 21.268166089965 265 L 19.029411764706 265 L 16.790657439446 265 L 14.551903114187 265 L 12.313148788927 265 L 10.074394463668 265 L 7.8356401384083 265 L 5.5968858131488 265 L 3.3581314878893 265 L 1.1193771626298 265" class="highcharts-area"></path><path fill="none" d="M 1.1193771626298 15.256308450036556 L 3.3581314878893 15.323930522625204 L 5.5968858131488 17.555458918066506 L 7.8356401384083 18.16405757137386 L 10.074394463668 15.932529175925168 L 12.313148788927 21.409917055662845 L 14.551903114187 21.748027418607165 L 16.790657439446 21.27467291048555 L 19.029411764706 21.61278327342987 L 21.268166089965 22.559492289681515 L 23.506920415225 19.31363280539253 L 25.745674740484 23.303335088159855 L 27.984429065744 24.65577653994447 L 30.223183391003 26.278706282093168 L 32.461937716263 22.153759854141185 L 34.700692041522 16.27063953887054 L 36.939446366782 21.342294983074197 L 39.178200692042 18.90790036985956 L 41.416955017301 22.153759854141185 L 43.655709342561 20.4632080394112 L 45.89446366782 25.196753120663175 L 48.13321799308 23.235713015570155 L 50.371972318339 28.577856750123146 L 52.610726643599 33.04091354101945 L 54.849480968858 32.70280317807513 L 57.088235294118 30.80938514557181 L 59.326989619377 34.393354992805115 L 61.565743944637 33.243779758786474 L 63.804498269896 36.0839068075351 L 66.043252595156 37.842080694861124 L 68.282006920415 42.372759558346104 L 70.520761245675 42.372759558346104 L 72.759515570934 35.94866266235675 L 74.998269896194 35.20481986387949 L 77.237024221453 31.82371623441213 L 79.475778546713 28.239746387178826 L 81.714532871972 30.268408564860493 L 83.953287197232 29.862676129319112 L 86.192041522491 33.8523784120938 L 88.430795847751 28.44261260494477 L 90.66955017301 26.14346213690851 L 92.90830449827 21.13942876529981 L 95.147058823529 17.35259270029951 L 97.385813148789 14.444843578962207 L 99.624567474048 16.67637197441087 L 101.86332179931 12.619047619047535 L 104.10207612457 16.743994046999518 L 106.34083044983 22.153759854141185 L 108.57958477509 23.43857923333715 L 110.81833910035 19.381254877981178 L 113.05709342561 18.096435498785212 L 115.29584775087 22.559492289681515 L 117.53460207612 19.584121095748174 L 119.77335640138 18.90790036985956 L 122.01211072664 19.854609386103846 L 124.2508650519 25.06150897548585 L 126.48961937716 33.8523784120938 L 128.72837370242 31.82371623441213 L 130.96712802768 31.82371623441213 L 133.20588235294 24.58815446735582 L 135.4446366782 24.2500441044115 L 137.68339100346 23.43857923333715 L 139.92214532872 28.78072296789648 L 142.16089965398 29.321699548607796 L 144.39965397924 22.153759854141185 L 146.6384083045 22.153759854141185 L 148.87716262976 22.153759854141185 L 151.11591695502 25.602485556197195 L 153.35467128028 29.99792027450485 L 155.59342560554 28.10450224200048 L 157.8321799308 26.075840064318783 L 160.07093425606 27.02254908057151 L 162.30968858131 27.02254908057151 L 164.54844290657 27.901636024233454 L 166.78719723183 32.63518110548648 L 169.02595155709 29.321699548607796 L 171.26470588235 29.321699548607796 L 173.50346020761 32.90566939584215 L 175.74221453287 31.350361726289464 L 177.98096885813 34.12286670244947 L 180.21972318339 38.0449469126271 L 182.45847750865 38.0449469126271 L 184.69723183391 37.90970276744977 L 186.93598615917 39.667876654775796 L 189.17474048443 39.735498727364444 L 191.41349480969 35.881040589768105 L 193.65224913495 35.00195364611247 L 195.89100346021 27.69876980646751 L 198.12975778547 34.93433157352382 L 200.36851211073 34.93433157352382 L 202.60726643599 27.02254908057151 L 204.84602076125 27.69876980646751 L 207.08477508651 30.200786492270794 L 209.32352941176 39.735498727364444 L 211.56228373702 39.667876654775796 L 213.80103806228 38.72116763852412 L 216.03979238754 38.72116763852412 L 218.2785467128 39.735498727364444 L 220.51730103806 34.32573292021647 L 222.75605536332 26.54919457244884 L 224.99480968858 21.477539128251493 L 227.23356401384 20.666074257178195 L 229.4723183391 22.35662607190713 L 231.71107266436 31.688472089234835 L 233.94982698962 35.67817437200111 L 236.18858131488 35.74579644459081 L 238.42733564014 42.4403816309358 L 240.6660899654 40.005987017720116 L 242.90484429066 34.25811084762677 L 245.14359861592 42.710869921290396 L 247.38235294118 39.93836494513147 L 249.62110726644 40.20885323548711 L 251.8598615917 37.97732484003842 L 254.09861591695 37.63921447709413 L 256.33737024221 41.223184324327434 L 258.57612456747 38.924033856290094 L 260.81487889273 36.0839068075351 L 263.05363321799 34.52859913798244 L 265.29238754325 42.4403816309358 L 267.53114186851 42.84611406646877 L 269.76989619377 42.5756257761131 L 272.00865051903 56.91150516504001 L 274.24740484429 67.73103677933068 L 276.48615916955 65.36426423870364 L 278.72491349481 79.15916704692765 L 280.96366782007 88.1529027013026 L 283.20242214533 93.49504643585453 L 285.44117647059 90.31680902416159 L 287.67993079585 94.6446216698732 L 289.91868512111 86.05661845103228 L 292.15743944637 90.65491938710588 L 294.39619377163 88.62625720942526 L 296.63494809689 78.41532424844195 L 298.87370242215 77.33337108701298 L 301.1124567474 76.72477243371196 L 303.35121107266 80.44398642612362 L 305.58996539792 77.8743476677306 L 307.82871972318 94.10364508916189 L 310.06747404844 104.31457805014415 L 312.3062283737 95.3208423957692 L 314.54498269896 85.31277565255394 L 316.78373702422 96.94377213791054 L 319.02249134948 92.68358156478754 L 321.26124567474 94.23888923434023 L 323.5 85.65088601549826 L 325.73875432526 104.7879325582742 L 327.97750865052 107.01946095371551 L 330.21626297578 102.2182937998812 L 332.45501730104 104.44982219532253 L 334.6937716263 103.30024696130386 L 336.93252595156 107.96616996996718 L 339.17128027682 106.00512986488152 L 341.41003460208 104.2469559775555 L 343.64878892734 102.82689245318119 L 345.8875432526 96.33517348461058 L 348.12629757785 95.65895275871458 L 350.36505190311 91.33114011300293 L 352.60380622837 95.45608654094755 L 354.84256055363 96.74090592014352 L 357.08131487889 87.40905990281689 L 359.32006920415 84.77179907183523 L 361.55882352941 79.63252155505032 L 363.79757785467 81.12020715201328 L 366.03633217993 79.83538777281626 L 368.27508650519 87.00332746728392 L 370.51384083045 92.21022705665857 L 372.75259515571 88.62625720942526 L 374.99134948097 90.58729731451723 L 377.23010380623 88.35576891906959 L 379.46885813149 93.76876737545308 L 381.70761245675 100.0576201262651 L 383.94636678201 100.66621877956507 L 386.18512110727 97.01462685974207 L 388.42387543253 100.26048634403108 L 390.66262975779 100.32810841662078 L 392.90138408304 102.76250302983541 L 395.1401384083 104.31781069938705 L 397.37889273356 103.5739679009024 L 399.61764705882 104.31781069938705 L 401.85640138408 93.90401152063777 L 404.09515570934 92.55157006884576 L 406.3339100346 100.12524219885375 L 408.57266435986 101.6805498684054 L 410.81141868512 106.54933909483572 L 413.05017301038 104.99403142528408 L 415.28892733564 109.45708821617302 L 417.5276816609 147.73118130171756 L 419.76643598616 243.51534731719084 L 422.00519031142 224.04019041147058 L 424.24394463668 200.50770915039436 L 426.48269896194 209.5014448047693 L 428.7214532872 215.38456512003995 L 430.96020761246 218.2246921687886 L 433.19896193772 216.80462864441427 L 435.43771626298 215.24932097486266 L 437.67647058824 208.960468224058 L 439.91522491349 206.02033021733826 L 442.15397923875 210.28052079046756 L 444.39273356401 213.45875820216793 L 446.63148788927 220.08572131591689 L 448.87024221453 217.38083841234658 L 451.10899653979 225.42786505046882 L 453.34775086505 229.01183489770318 L 455.58650519031 225.8335974860102 L 457.82525951557 218.32754742859086 L 460.06401384083 213.86449063770087 L 462.30276816609 217.78657084787955 L 464.54152249135 206.41915305408443 L 466.78027681661 206.41915305408443 L 469.01903114187 234.46064159156657 L 471.25778546713 238.9478738196767 L 473.49653979239 238.9478738196767 L 475.73529411765 229.07505122163872 L 477.97404844291 226.9111448987787 L 480.21280276817 232.0504224155647 L 482.45155709343 230.22462645565741 L 484.69031141869 227.5873656246747 L 486.92906574394 237.73067651306832 L 489.1678200692 227.11401111654573 L 491.40657439446 229.21029536681604 L 493.64532871972 227.18163318914173 L 495.88408304498 229.00742914904902 L 498.12283737024 229.00742914904902 L 500.3615916955 228.93980707646037 L 502.60034602076 231.64468998003068 L 504.83910034602 243.7490409735173 L 507.07785467128 242.32029279932536 L 509.31660899654 247.32432617093403 L 511.5553633218 244.01084461405534 L 513.79411764706 244.078466686644 L 516.03287197232 248.20341311459705 L 518.27162629758 248.20341311459705 L 520.51038062284 248.20341311459705 L 522.7491349481 255.57421902683066 L 524.98788927336 245.90426264655972 L 527.22664359862 259.49629923700826 L 529.46539792388 239.6830319683437 L 531.70415224913 240.56211891199933 L 533.94290657439 238.60107880691476 L 536.18166089965 229.4044769347654 L 538.42041522491 232.9884467819987 L 540.65916955017 244.46835824778307 L 542.89792387543 245.75317762697904 L 545.13667820069 246.83726823444928 L 547.37543252595 229.25552936123233 L 549.61418685121 216.20446935149403 L 551.85294117647 216.7692863697742 L 554.09169550173 217.10739673271956 L 556.33044982699 212.91482823218522 L 558.56920415225 212.77958408700792 L 560.80795847751 212.64433994182218 L 563.04671280277 210.68329983673655 L 565.28546712803 212.50909579664489 L 567.52422145329 219.11606292221197 L 569.76297577855 216.88453452676436 L 572.00173010381 219.58941743034202 L 574.24048442907 218.034109760783 L 576.47923875433 214.45013991354864 L 578.71799307958 210.86617006631536 L 580.95674740484 225.60915913328725 L 583.1955017301 228.38166410944726 L 585.43425605536 227.82140001348654 L 587.67301038062 227.88902208607624 L 589.91176470588 227.88902208607624 L 592.15051903114 228.42999866679386 L 594.3892733564 232.48732302214984 L 596.62802768166 232.48732302214984 L 598.86678200692 231.81110229625386 L 601.10553633218 232.30455224470364 L 603.34429065744 222.90508415478834 L 605.5830449827 220.33544539639536 L 607.82179930796 223.85179317104001 L 610.06055363322 220.403067468984 L 612.29930795848 212.15317461308737 L 614.53806228374 212.829395338976 L 616.776816609 212.89701741157202 L 619.01557093426 205.99956600746003 L 621.25432525952 219.3887363801437 L 623.49307958478 232.37217431728493 L 625.73183391003 229.87015763148162 L 627.97058823529 238.66102706809696 L 630.20934256055 213.03226155675037 L 632.44809688581 196.1943654820118 L 634.68685121107 186.59203117432946 L 636.92560553633 193.21899428807842 L 639.16435986159 192.74563977995575 L 641.40311418685 196.73534206272308 L 643.64186851211 190.3788672393298 L 645.88062283737 186.1186766662068" class="highcharts-graph" stroke="rgba(132, 184, 235, 0.7)" stroke-width="1" stroke-linejoin="round" stroke-linecap="round"></path><path fill="none" d="M -8.8806228373702 15.256308450036556 L 1.1193771626298 15.256308450036556 L 3.3581314878893 15.323930522625204 L 5.5968858131488 17.555458918066506 L 7.8356401384083 18.16405757137386 L 10.074394463668 15.932529175925168 L 12.313148788927 21.409917055662845 L 14.551903114187 21.748027418607165 L 16.790657439446 21.27467291048555 L 19.029411764706 21.61278327342987 L 21.268166089965 22.559492289681515 L 23.506920415225 19.31363280539253 L 25.745674740484 23.303335088159855 L 27.984429065744 24.65577653994447 L 30.223183391003 26.278706282093168 L 32.461937716263 22.153759854141185 L 34.700692041522 16.27063953887054 L 36.939446366782 21.342294983074197 L 39.178200692042 18.90790036985956 L 41.416955017301 22.153759854141185 L 43.655709342561 20.4632080394112 L 45.89446366782 25.196753120663175 L 48.13321799308 23.235713015570155 L 50.371972318339 28.577856750123146 L 52.610726643599 33.04091354101945 L 54.849480968858 32.70280317807513 L 57.088235294118 30.80938514557181 L 59.326989619377 34.393354992805115 L 61.565743944637 33.243779758786474 L 63.804498269896 36.0839068075351 L 66.043252595156 37.842080694861124 L 68.282006920415 42.372759558346104 L 70.520761245675 42.372759558346104 L 72.759515570934 35.94866266235675 L 74.998269896194 35.20481986387949 L 77.237024221453 31.82371623441213 L 79.475778546713 28.239746387178826 L 81.714532871972 30.268408564860493 L 83.953287197232 29.862676129319112 L 86.192041522491 33.8523784120938 L 88.430795847751 28.44261260494477 L 90.66955017301 26.14346213690851 L 92.90830449827 21.13942876529981 L 95.147058823529 17.35259270029951 L 97.385813148789 14.444843578962207 L 99.624567474048 16.67637197441087 L 101.86332179931 12.619047619047535 L 104.10207612457 16.743994046999518 L 106.34083044983 22.153759854141185 L 108.57958477509 23.43857923333715 L 110.81833910035 19.381254877981178 L 113.05709342561 18.096435498785212 L 115.29584775087 22.559492289681515 L 117.53460207612 19.584121095748174 L 119.77335640138 18.90790036985956 L 122.01211072664 19.854609386103846 L 124.2508650519 25.06150897548585 L 126.48961937716 33.8523784120938 L 128.72837370242 31.82371623441213 L 130.96712802768 31.82371623441213 L 133.20588235294 24.58815446735582 L 135.4446366782 24.2500441044115 L 137.68339100346 23.43857923333715 L 139.92214532872 28.78072296789648 L 142.16089965398 29.321699548607796 L 144.39965397924 22.153759854141185 L 146.6384083045 22.153759854141185 L 148.87716262976 22.153759854141185 L 151.11591695502 25.602485556197195 L 153.35467128028 29.99792027450485 L 155.59342560554 28.10450224200048 L 157.8321799308 26.075840064318783 L 160.07093425606 27.02254908057151 L 162.30968858131 27.02254908057151 L 164.54844290657 27.901636024233454 L 166.78719723183 32.63518110548648 L 169.02595155709 29.321699548607796 L 171.26470588235 29.321699548607796 L 173.50346020761 32.90566939584215 L 175.74221453287 31.350361726289464 L 177.98096885813 34.12286670244947 L 180.21972318339 38.0449469126271 L 182.45847750865 38.0449469126271 L 184.69723183391 37.90970276744977 L 186.93598615917 39.667876654775796 L 189.17474048443 39.735498727364444 L 191.41349480969 35.881040589768105 L 193.65224913495 35.00195364611247 L 195.89100346021 27.69876980646751 L 198.12975778547 34.93433157352382 L 200.36851211073 34.93433157352382 L 202.60726643599 27.02254908057151 L 204.84602076125 27.69876980646751 L 207.08477508651 30.200786492270794 L 209.32352941176 39.735498727364444 L 211.56228373702 39.667876654775796 L 213.80103806228 38.72116763852412 L 216.03979238754 38.72116763852412 L 218.2785467128 39.735498727364444 L 220.51730103806 34.32573292021647 L 222.75605536332 26.54919457244884 L 224.99480968858 21.477539128251493 L 227.23356401384 20.666074257178195 L 229.4723183391 22.35662607190713 L 231.71107266436 31.688472089234835 L 233.94982698962 35.67817437200111 L 236.18858131488 35.74579644459081 L 238.42733564014 42.4403816309358 L 240.6660899654 40.005987017720116 L 242.90484429066 34.25811084762677 L 245.14359861592 42.710869921290396 L 247.38235294118 39.93836494513147 L 249.62110726644 40.20885323548711 L 251.8598615917 37.97732484003842 L 254.09861591695 37.63921447709413 L 256.33737024221 41.223184324327434 L 258.57612456747 38.924033856290094 L 260.81487889273 36.0839068075351 L 263.05363321799 34.52859913798244 L 265.29238754325 42.4403816309358 L 267.53114186851 42.84611406646877 L 269.76989619377 42.5756257761131 L 272.00865051903 56.91150516504001 L 274.24740484429 67.73103677933068 L 276.48615916955 65.36426423870364 L 278.72491349481 79.15916704692765 L 280.96366782007 88.1529027013026 L 283.20242214533 93.49504643585453 L 285.44117647059 90.31680902416159 L 287.67993079585 94.6446216698732 L 289.91868512111 86.05661845103228 L 292.15743944637 90.65491938710588 L 294.39619377163 88.62625720942526 L 296.63494809689 78.41532424844195 L 298.87370242215 77.33337108701298 L 301.1124567474 76.72477243371196 L 303.35121107266 80.44398642612362 L 305.58996539792 77.8743476677306 L 307.82871972318 94.10364508916189 L 310.06747404844 104.31457805014415 L 312.3062283737 95.3208423957692 L 314.54498269896 85.31277565255394 L 316.78373702422 96.94377213791054 L 319.02249134948 92.68358156478754 L 321.26124567474 94.23888923434023 L 323.5 85.65088601549826 L 325.73875432526 104.7879325582742 L 327.97750865052 107.01946095371551 L 330.21626297578 102.2182937998812 L 332.45501730104 104.44982219532253 L 334.6937716263 103.30024696130386 L 336.93252595156 107.96616996996718 L 339.17128027682 106.00512986488152 L 341.41003460208 104.2469559775555 L 343.64878892734 102.82689245318119 L 345.8875432526 96.33517348461058 L 348.12629757785 95.65895275871458 L 350.36505190311 91.33114011300293 L 352.60380622837 95.45608654094755 L 354.84256055363 96.74090592014352 L 357.08131487889 87.40905990281689 L 359.32006920415 84.77179907183523 L 361.55882352941 79.63252155505032 L 363.79757785467 81.12020715201328 L 366.03633217993 79.83538777281626 L 368.27508650519 87.00332746728392 L 370.51384083045 92.21022705665857 L 372.75259515571 88.62625720942526 L 374.99134948097 90.58729731451723 L 377.23010380623 88.35576891906959 L 379.46885813149 93.76876737545308 L 381.70761245675 100.0576201262651 L 383.94636678201 100.66621877956507 L 386.18512110727 97.01462685974207 L 388.42387543253 100.26048634403108 L 390.66262975779 100.32810841662078 L 392.90138408304 102.76250302983541 L 395.1401384083 104.31781069938705 L 397.37889273356 103.5739679009024 L 399.61764705882 104.31781069938705 L 401.85640138408 93.90401152063777 L 404.09515570934 92.55157006884576 L 406.3339100346 100.12524219885375 L 408.57266435986 101.6805498684054 L 410.81141868512 106.54933909483572 L 413.05017301038 104.99403142528408 L 415.28892733564 109.45708821617302 L 417.5276816609 147.73118130171756 L 419.76643598616 243.51534731719084 L 422.00519031142 224.04019041147058 L 424.24394463668 200.50770915039436 L 426.48269896194 209.5014448047693 L 428.7214532872 215.38456512003995 L 430.96020761246 218.2246921687886 L 433.19896193772 216.80462864441427 L 435.43771626298 215.24932097486266 L 437.67647058824 208.960468224058 L 439.91522491349 206.02033021733826 L 442.15397923875 210.28052079046756 L 444.39273356401 213.45875820216793 L 446.63148788927 220.08572131591689 L 448.87024221453 217.38083841234658 L 451.10899653979 225.42786505046882 L 453.34775086505 229.01183489770318 L 455.58650519031 225.8335974860102 L 457.82525951557 218.32754742859086 L 460.06401384083 213.86449063770087 L 462.30276816609 217.78657084787955 L 464.54152249135 206.41915305408443 L 466.78027681661 206.41915305408443 L 469.01903114187 234.46064159156657 L 471.25778546713 238.9478738196767 L 473.49653979239 238.9478738196767 L 475.73529411765 229.07505122163872 L 477.97404844291 226.9111448987787 L 480.21280276817 232.0504224155647 L 482.45155709343 230.22462645565741 L 484.69031141869 227.5873656246747 L 486.92906574394 237.73067651306832 L 489.1678200692 227.11401111654573 L 491.40657439446 229.21029536681604 L 493.64532871972 227.18163318914173 L 495.88408304498 229.00742914904902 L 498.12283737024 229.00742914904902 L 500.3615916955 228.93980707646037 L 502.60034602076 231.64468998003068 L 504.83910034602 243.7490409735173 L 507.07785467128 242.32029279932536 L 509.31660899654 247.32432617093403 L 511.5553633218 244.01084461405534 L 513.79411764706 244.078466686644 L 516.03287197232 248.20341311459705 L 518.27162629758 248.20341311459705 L 520.51038062284 248.20341311459705 L 522.7491349481 255.57421902683066 L 524.98788927336 245.90426264655972 L 527.22664359862 259.49629923700826 L 529.46539792388 239.6830319683437 L 531.70415224913 240.56211891199933 L 533.94290657439 238.60107880691476 L 536.18166089965 229.4044769347654 L 538.42041522491 232.9884467819987 L 540.65916955017 244.46835824778307 L 542.89792387543 245.75317762697904 L 545.13667820069 246.83726823444928 L 547.37543252595 229.25552936123233 L 549.61418685121 216.20446935149403 L 551.85294117647 216.7692863697742 L 554.09169550173 217.10739673271956 L 556.33044982699 212.91482823218522 L 558.56920415225 212.77958408700792 L 560.80795847751 212.64433994182218 L 563.04671280277 210.68329983673655 L 565.28546712803 212.50909579664489 L 567.52422145329 219.11606292221197 L 569.76297577855 216.88453452676436 L 572.00173010381 219.58941743034202 L 574.24048442907 218.034109760783 L 576.47923875433 214.45013991354864 L 578.71799307958 210.86617006631536 L 580.95674740484 225.60915913328725 L 583.1955017301 228.38166410944726 L 585.43425605536 227.82140001348654 L 587.67301038062 227.88902208607624 L 589.91176470588 227.88902208607624 L 592.15051903114 228.42999866679386 L 594.3892733564 232.48732302214984 L 596.62802768166 232.48732302214984 L 598.86678200692 231.81110229625386 L 601.10553633218 232.30455224470364 L 603.34429065744 222.90508415478834 L 605.5830449827 220.33544539639536 L 607.82179930796 223.85179317104001 L 610.06055363322 220.403067468984 L 612.29930795848 212.15317461308737 L 614.53806228374 212.829395338976 L 616.776816609 212.89701741157202 L 619.01557093426 205.99956600746003 L 621.25432525952 219.3887363801437 L 623.49307958478 232.37217431728493 L 625.73183391003 229.87015763148162 L 627.97058823529 238.66102706809696 L 630.20934256055 213.03226155675037 L 632.44809688581 196.1943654820118 L 634.68685121107 186.59203117432946 L 636.92560553633 193.21899428807842 L 639.16435986159 192.74563977995575 L 641.40311418685 196.73534206272308 L 643.64186851211 190.3788672393298 L 645.88062283737 186.1186766662068 L 655.88062283737 186.1186766662068" stroke-linejoin="round" visibility="visible" stroke="rgba(192,192,192,0.0001)" stroke-width="21" class="highcharts-tracker"></path></g><g class="highcharts-markers highcharts-series-0 highcharts-area-series highcharts-color-0  highcharts-tracker" transform="translate(0,53) scale(1 1)" clip-path="none"></g><g class="highcharts-series highcharts-series-2 highcharts-areaspline-series highcharts-navigator-series" transform="translate(0,367) scale(1 1)" clip-path="url(#highcharts-fei0ufw-4)"><path fill="rgba(132,184,235,0.05)" d="M 0 0" class="highcharts-area"></path></g><g class="highcharts-markers highcharts-series-2 highcharts-areaspline-series highcharts-navigator-series" transform="translate(0,367) scale(1 1)" clip-path="none"></g></g><text x="324" text-anchor="middle" class="highcharts-title" style="color:#333333;font-size:16px;fill:#333333;" y="22"></text><text x="324" text-anchor="middle" class="highcharts-subtitle" style="color:#666666;fill:#666666;" y="24"></text><g class="highcharts-axis-labels highcharts-xaxis-labels "><text x="231.71107266435985" style="color:#666666;cursor:default;font-size:11px;fill:#666666;" text-anchor="middle" transform="translate(0,0)" y="337" opacity="1"><tspan>22. Sep.</tspan></text><text x="554.0916955017301" style="color:#666666;cursor:default;font-size:11px;fill:#666666;" text-anchor="middle" transform="translate(0,0)" y="337" opacity="1"><tspan>12:00</tspan></text><text x="16.790657439446367" style="color:#666666;cursor:default;font-size:11px;fill:#666666;" text-anchor="middle" transform="translate(0,0)" y="337" opacity="1"><tspan>16:00</tspan></text><text x="124.25086505190312" style="color:#666666;cursor:default;font-size:11px;fill:#666666;" text-anchor="middle" transform="translate(0,0)" y="337" opacity="1"><tspan>20:00</tspan></text><text x="339.1712802768166" style="color:#666666;cursor:default;font-size:11px;fill:#666666;" text-anchor="middle" transform="translate(0,0)" y="337" opacity="1"><tspan>04:00</tspan></text><text x="446.63148788927333" style="color:#666666;cursor:default;font-size:11px;fill:#666666;" text-anchor="middle" transform="translate(0,0)" y="337" opacity="1"><tspan>08:00</tspan></text></g><g class="highcharts-axis-labels highcharts-xaxis-labels highcharts-navigator-xaxis"></g><g class="highcharts-axis-labels highcharts-yaxis-labels "><text x="647" style="color:#666666;cursor:default;font-size:11px;fill:#666666;" text-anchor="end" transform="translate(0,0)" y="262" opacity="1"><tspan>$113,000</tspan></text><text x="647" style="color:#666666;cursor:default;font-size:11px;fill:#666666;" text-anchor="end" transform="translate(0,0)" y="189" opacity="1"><tspan>$114,000</tspan></text><text x="0" style="color:#666666;cursor:default;font-size:11px;fill:#666666;" text-anchor="end" transform="translate(0,0)" y="-9999"><tspan>$115,000</tspan></text></g><g class="highcharts-axis-labels highcharts-yaxis-labels "></g><g class="highcharts-axis-labels highcharts-yaxis-labels "></g><g class="highcharts-axis-labels highcharts-yaxis-labels highcharts-navigator-yaxis"></g><g class="highcharts-range-selector-group" transform="translate(0,0)"><g class="highcharts-range-selector-buttons" transform="translate(0,10)"><text x="10" y="15" style="color:#666666;fill:#666666;"></text><g class="highcharts-button highcharts-button-normal" style="cursor:pointer;" transform="translate(15,0)"><rect fill="#f7f7f7" class=" highcharts-button-box" x="0" y="0" width="32" height="22" rx="2" ry="2"></rect><text x="8.4765625" style="font-weight:normal;color:#333333;fill:#333333;" y="14">1h</text></g><g class="highcharts-button highcharts-button-pressed" style="cursor:pointer;" transform="translate(52,0)"><rect fill="#e6ebf5" class=" highcharts-button-box" x="0" y="0" width="32" height="22" rx="2" ry="2"></rect><text x="8.4296875" style="font-weight:bold;color:#000000;fill:#000000;" y="14">1d</text></g><g class="highcharts-button highcharts-button-normal" style="cursor:pointer;" transform="translate(89,0)"><rect fill="#f7f7f7" class=" highcharts-button-box" x="0" y="0" width="32" height="22" rx="2" ry="2"></rect><text x="8.4296875" style="font-weight: bold; color: rgb(51, 51, 51); fill: rgb(51, 51, 51);" y="14">7d</text></g><g class="highcharts-button highcharts-button-normal" style="cursor:pointer;" transform="translate(126,0)"><rect fill="#f7f7f7" class=" highcharts-button-box" x="0" y="0" width="32" height="22" rx="2" ry="2"></rect><text x="6.6015625" style="font-weight:normal;color:#333333;fill:#333333;" y="14">1m</text></g><g class="highcharts-button highcharts-button-normal" style="cursor:pointer;" transform="translate(163,0)"><rect fill="#f7f7f7" class=" highcharts-button-box" x="0" y="0" width="32" height="22" rx="2" ry="2"></rect><text x="6.6015625" style="font-weight:normal;color:#333333;fill:#333333;" y="14">3m</text></g><g class="highcharts-button highcharts-button-normal" style="cursor:pointer;" transform="translate(200,0)"><rect fill="#f7f7f7" class=" highcharts-button-box" x="0" y="0" width="32" height="22" rx="2" ry="2"></rect><text x="6.6015625" style="font-weight:normal;color:#333333;fill:#333333;" y="14">6m</text></g><g class="highcharts-button highcharts-button-normal" style="cursor:pointer;" transform="translate(237,0)"><rect fill="#f7f7f7" class=" highcharts-button-box" x="0" y="0" width="32" height="22" rx="2" ry="2"></rect><text x="3.4677734375" style="font-weight:normal;color:#333333;fill:#333333;" y="14">YTD</text></g><g class="highcharts-button highcharts-button-normal" style="cursor:pointer;" transform="translate(274,0)"><rect fill="#f7f7f7" class=" highcharts-button-box" x="0" y="0" width="32" height="22" rx="2" ry="2"></rect><text x="8.7060546875" style="font-weight:normal;color:#333333;fill:#333333;" y="14">1y</text></g><g class="highcharts-button highcharts-button-normal" style="cursor:pointer;" transform="translate(311,0)"><rect fill="#f7f7f7" class=" highcharts-button-box" x="0" y="0" width="32" height="22" rx="2" ry="2"></rect><text x="7.890625" style="font-weight:normal;color:#333333;fill:#333333;" y="14">All</text></g></g><g class="highcharts-input-group" transform="translate(381,10)"><g class="highcharts-label highcharts-range-label" transform="translate(0,0)" style="fill:#666666;"><text x="2" y="14" style="font-size:12px;font-family:&quot;Lucida Grande&quot;, &quot;Lucida Sans Unicode&quot;, Arial, Helvetica, sans-serif;color:#666666;fill:#666666;">From</text></g><g class="highcharts-label highcharts-range-input" transform="translate(41,0)"><rect fill="none" class="highcharts-label-box" x="0.5" y="0.5" width="94" height="21" stroke="#cccccc" stroke-width="1"></rect><text x="6.2890625" y="14" style="font-size:12px;font-family:&quot;Lucida Grande&quot;, &quot;Lucida Sans Unicode&quot;, Arial, Helvetica, sans-serif;color:#333333;fill:#333333;"><tspan>Sep. 21, 2025</tspan></text></g><g class="highcharts-label highcharts-range-label" transform="translate(145,0)" style="fill:#666666;"><text x="2" y="14" style="font-size:12px;font-family:&quot;Lucida Grande&quot;, &quot;Lucida Sans Unicode&quot;, Arial, Helvetica, sans-serif;color:#666666;fill:#666666;">To</text></g><g class="highcharts-label highcharts-range-input" transform="translate(172,0)"><rect fill="none" class="highcharts-label-box" x="0.5" y="0.5" width="94" height="21" stroke="#cccccc" stroke-width="1"></rect><text x="6.2890625" y="14" style="font-size:12px;font-family:&quot;Lucida Grande&quot;, &quot;Lucida Sans Unicode&quot;, Arial, Helvetica, sans-serif;color:#333333;fill:#333333;"><tspan>Sep. 22, 2025</tspan></text></g></g></g><g class="highcharts-legend" transform="translate(273,372)"><rect fill="none" class="highcharts-legend-box" rx="0" ry="0" x="0" y="0" width="100" height="13" visibility="visible"></rect><g><g><g class="highcharts-legend-item highcharts-area-series highcharts-color-0 highcharts-series-0" transform="translate(0,-5)"><text x="21" style="color:#333333;font-size:12px;font-weight:bold;cursor:pointer;fill:#333333;" text-anchor="start" y="15"><tspan>Avg. BTCUSD</tspan></text><rect x="2" y="4" width="12" height="12" fill="rgba(132, 184, 235, 0.7)" rx="6" ry="6" class="highcharts-point"></rect></g></g></g></g><g class="highcharts-navigator" visibility="visible"><rect fill="rgba(0,0,0,0)" class="highcharts-navigator-mask-outside" x="0" y="367" width="647" height="0"></rect><rect fill="rgba(102,133,194,0.3)" class="highcharts-navigator-mask-inside" style="cursor:ew-resize;" x="647" y="367" width="0" height="0"></rect><rect fill="rgba(0,0,0,0)" class="highcharts-navigator-mask-outside" x="647" y="367" width="0" height="0"></rect><path fill="none" class="highcharts-navigator-outline" d="M 0 367 L 647 367 L 647 367 L 647 367 L 647 367 L 647 367 M 647 367 L 647 367"></path><path fill="transparent" d="M -4.5 0.5 L 3.5 0.5 L 3.5 15.5 L -4.5 15.5 L -4.5 0.5 M -1.5 4 L -1.5 12 M 0.5 4 L 0.5 12" class="highcharts-navigator-handle highcharts-navigator-handle-right" stroke="transparent" stroke-width="1" style="cursor:ew-resize;" transform="translate(647,359)"></path><path fill="transparent" d="M -4.5 0.5 L 3.5 0.5 L 3.5 15.5 L -4.5 15.5 L -4.5 0.5 M -1.5 4 L -1.5 12 M 0.5 4 L 0.5 12" class="highcharts-navigator-handle highcharts-navigator-handle-left" stroke="transparent" stroke-width="1" style="cursor:ew-resize;" transform="translate(647,359)"></path></g></svg>